<?xml version="1.0" encoding="utf-8"?>
<!-- Generator: Adobe Illustrator 16.0.0, SVG Export Plug-In . SVG Version: 6.00 Build 0)  -->
<!DOCTYPE svg PUBLIC "-//W3C//DTD SVG 1.1//EN" "http://www.w3.org/Graphics/SVG/1.1/DTD/svg11.dtd">
<svg version="1.1" id="Layer_1" xmlns="http://www.w3.org/2000/svg" xmlns:xlink="http://www.w3.org/1999/xlink" x="0px" y="0px"
	 width="10.36px" height="14.28px" viewBox="57.82 55.86 10.36 14.28" enable-background="new 57.82 55.86 10.36 14.28"
	 xml:space="preserve">
<g>
	<path d="M68.178,59.282c-0.001-0.065-0.022-0.13-0.067-0.181l-2.753-3.145c-0.001-0.001-0.002-0.001-0.002-0.002
		c-0.017-0.019-0.035-0.034-0.056-0.047c-0.006-0.004-0.013-0.007-0.019-0.011c-0.018-0.01-0.036-0.018-0.056-0.023
		c-0.005-0.002-0.01-0.004-0.015-0.005c-0.021-0.005-0.043-0.008-0.064-0.008H58.38c-0.309,0-0.56,0.251-0.56,0.56v13.16
		c0,0.309,0.251,0.56,0.56,0.56h9.24c0.309,0,0.56-0.251,0.56-0.56V59.313C68.18,59.303,68.179,59.292,68.178,59.282z M58.38,56.42
		h6.487v2.865c0,0.154,0.125,0.28,0.279,0.28h2.474v5.803h-9.24V56.42z M60.539,68.805h-0.561v-1.069h-0.927v1.069h-0.564v-2.557
		h0.564v0.982h0.927v-0.982h0.561V68.805z M62.753,66.734h-0.679v2.07h-0.565v-2.07h-0.668v-0.486h1.912V66.734z M65.178,68.805
		l-0.036-0.979c-0.012-0.307-0.022-0.679-0.022-1.051h-0.011c-0.078,0.326-0.182,0.69-0.277,0.99l-0.303,0.998H64.09l-0.266-0.99
		c-0.082-0.3-0.167-0.664-0.226-0.998h-0.008c-0.015,0.346-0.025,0.74-0.044,1.059l-0.044,0.971h-0.521l0.158-2.557h0.75
		l0.243,0.854c0.078,0.296,0.155,0.615,0.211,0.914h0.011c0.07-0.295,0.154-0.633,0.236-0.917l0.266-0.851h0.734l0.137,2.557H65.178
		L65.178,68.805z M67.714,68.805H66.16v-2.557h0.564v2.071h0.989V68.805L67.714,68.805z"/>
	<polygon points="59.856,62.318 62.001,63.314 62.001,62.841 60.379,62.13 60.379,62.121 62.001,61.411 62.001,60.937 
		59.856,61.934 	"/>
	<polygon points="62.332,63.493 62.783,63.493 63.739,60.253 63.289,60.253 	"/>
	<polygon points="63.999,61.411 65.657,62.121 65.657,62.13 63.999,62.841 63.999,63.314 66.144,62.331 66.144,61.92 63.999,60.937 
			"/>
</g>
</svg>
