<?xml version="1.0" encoding="utf-8"?>
<!-- Generator: Adobe Illustrator 16.0.0, SVG Export Plug-In . SVG Version: 6.00 Build 0)  -->
<!DOCTYPE svg PUBLIC "-//W3C//DTD SVG 1.1//EN" "http://www.w3.org/Graphics/SVG/1.1/DTD/svg11.dtd">
<svg version="1.1" id="Layer_1" xmlns="http://www.w3.org/2000/svg" xmlns:xlink="http://www.w3.org/1999/xlink" x="0px" y="0px"
	 width="8.88px" height="12.24px" viewBox="58.56 56.88 8.88 12.24" enable-background="new 58.56 56.88 8.88 12.24"
	 xml:space="preserve">
<g>
	<path d="M67.438,59.813c-0.001-0.056-0.019-0.111-0.057-0.155l-2.36-2.696c0-0.001-0.001-0.001-0.002-0.001
		c-0.014-0.016-0.03-0.029-0.048-0.041c-0.005-0.003-0.01-0.006-0.016-0.009c-0.015-0.008-0.03-0.015-0.047-0.02
		c-0.005-0.001-0.009-0.003-0.014-0.004c-0.018-0.004-0.036-0.007-0.055-0.007h-5.8c-0.265,0-0.48,0.215-0.48,0.48v11.28
		c0,0.265,0.215,0.48,0.48,0.48h7.92c0.265,0,0.48-0.216,0.48-0.48v-8.8C67.44,59.831,67.438,59.822,67.438,59.813z M59.04,57.36
		h5.56v2.456c0,0.132,0.107,0.24,0.24,0.24h2.12v4.975h-7.92V57.36z M60.89,67.976h-0.481v-0.917h-0.794v0.917h-0.483v-2.191h0.483
		v0.843h0.794v-0.843h0.481V67.976z M62.788,66.2h-0.582v1.775h-0.484V66.2H61.15v-0.416h1.638V66.2z M64.867,67.976l-0.032-0.839
		c-0.009-0.263-0.019-0.582-0.019-0.9h-0.01c-0.066,0.279-0.154,0.592-0.237,0.849l-0.259,0.854h-0.377l-0.228-0.848
		c-0.069-0.257-0.143-0.569-0.193-0.855h-0.006c-0.013,0.296-0.022,0.634-0.038,0.907l-0.039,0.832h-0.446l0.136-2.191h0.642
		l0.209,0.731c0.066,0.254,0.133,0.527,0.181,0.784h0.01c0.06-0.254,0.133-0.543,0.202-0.787l0.228-0.729h0.63l0.117,2.191H64.867
		L64.867,67.976z M67.041,67.976h-1.332v-2.191h0.484v1.775h0.848V67.976L67.041,67.976z"/>
	<polygon points="60.305,62.415 62.144,63.27 62.144,62.863 60.753,62.254 60.753,62.247 62.144,61.638 62.144,61.231 
		60.305,62.086 	"/>
	<polygon points="62.428,63.422 62.814,63.422 63.634,60.646 63.247,60.646 	"/>
	<polygon points="63.856,61.638 65.277,62.247 65.277,62.254 63.856,62.863 63.856,63.27 65.695,62.427 65.695,62.074 
		63.856,61.231 	"/>
</g>
</svg>
