<?xml version="1.0" encoding="utf-8"?>
<!-- Generator: Adobe Illustrator 16.0.0, SVG Export Plug-In . SVG Version: 6.00 Build 0)  -->
<!DOCTYPE svg PUBLIC "-//W3C//DTD SVG 1.1//EN" "http://www.w3.org/Graphics/SVG/1.1/DTD/svg11.dtd">
<svg version="1.1" id="Layer_1" xmlns="http://www.w3.org/2000/svg" xmlns:xlink="http://www.w3.org/1999/xlink" x="0px" y="0px"
	 width="10.36px" height="14.28px" viewBox="57.82 55.86 10.36 14.28" enable-background="new 57.82 55.86 10.36 14.28"
	 xml:space="preserve">
<g>
	<path d="M68.178,59.282c-0.001-0.066-0.022-0.13-0.067-0.182l-2.753-3.145c-0.001,0-0.002-0.001-0.002-0.002
		c-0.017-0.018-0.036-0.033-0.057-0.046c-0.006-0.004-0.012-0.008-0.018-0.011c-0.018-0.009-0.036-0.017-0.056-0.023
		c-0.005-0.001-0.01-0.004-0.015-0.005c-0.021-0.005-0.043-0.008-0.064-0.008H58.38c-0.309,0-0.56,0.251-0.56,0.56v13.16
		c0,0.309,0.251,0.56,0.56,0.56h9.24c0.309,0,0.56-0.251,0.56-0.56V59.313C68.18,59.303,68.179,59.292,68.178,59.282z
		 M60.611,68.131c0,0.968-0.464,1.306-1.209,1.306c-0.176,0-0.408-0.03-0.559-0.081l0.085-0.62c0.106,0.035,0.242,0.061,0.393,0.061
		c0.323,0,0.524-0.146,0.524-0.675v-2.137h0.766V68.131z M63.378,67.823c-0.262,0.247-0.65,0.358-1.104,0.358
		c-0.101,0-0.192-0.005-0.262-0.016v1.215h-0.761v-3.352c0.237-0.04,0.57-0.07,1.038-0.07c0.474,0,0.812,0.091,1.039,0.272
		c0.217,0.171,0.362,0.453,0.362,0.786C63.69,67.35,63.58,67.632,63.378,67.823z M67.017,69.225
		c-0.236,0.08-0.685,0.191-1.134,0.191c-0.619,0-1.068-0.156-1.381-0.458c-0.313-0.293-0.483-0.736-0.479-1.235
		c0.005-1.129,0.826-1.773,1.94-1.773c0.438,0,0.776,0.085,0.942,0.166l-0.161,0.615c-0.187-0.081-0.419-0.146-0.792-0.146
		c-0.64,0-1.123,0.363-1.123,1.099c0,0.7,0.438,1.114,1.068,1.114c0.176,0,0.317-0.021,0.378-0.051v-0.711h-0.524v-0.6h1.265V69.225
		z M58.38,65.368V56.42h6.486v2.865c0,0.154,0.126,0.28,0.28,0.28h2.474v5.803H58.38z"/>
	<path d="M62.33,66.538c-0.156,0-0.262,0.016-0.317,0.03v1.003c0.065,0.016,0.146,0.021,0.257,0.021c0.408,0,0.66-0.207,0.66-0.555
		C62.93,66.725,62.713,66.538,62.33,66.538z"/>
	<g>
		<path d="M62.239,62.171c-1.118-1.119-2.203,3.208-2.203,3.208h3.727C63.763,65.38,63.357,63.291,62.239,62.171z"/>
		<path d="M64.951,63.326c-0.792,0.203-1.188,2.054-1.188,2.054h2.673C66.073,64.452,65.629,63.153,64.951,63.326z"/>
	</g>
	<path d="M60.036,61.174c0.383,0,0.693-0.31,0.693-0.693s-0.31-0.693-0.693-0.693s-0.694,0.31-0.694,0.693
		S59.653,61.174,60.036,61.174z"/>
	<path d="M64.241,61.62c0.141,0,0.271-0.014,0.388-0.038c0.136,0.059,0.301,0.093,0.48,0.093c0.458,0,0.83-0.224,0.83-0.5
		c0-0.277-0.372-0.501-0.83-0.501c-0.173,0-0.332,0.032-0.465,0.086c-0.055-0.053-0.128-0.086-0.209-0.086h-0.12
		c-0.153,0-0.275,0.117-0.293,0.266c-0.372,0.039-0.647,0.173-0.647,0.334C63.375,61.465,63.763,61.62,64.241,61.62z"/>
</g>
</svg>
