<?xml version="1.0" encoding="utf-8"?>
<!-- Generator: Adobe Illustrator 16.0.0, SVG Export Plug-In . SVG Version: 6.00 Build 0)  -->
<!DOCTYPE svg PUBLIC "-//W3C//DTD SVG 1.1//EN" "http://www.w3.org/Graphics/SVG/1.1/DTD/svg11.dtd">
<svg version="1.1" id="Layer_1" xmlns="http://www.w3.org/2000/svg" xmlns:xlink="http://www.w3.org/1999/xlink" x="0px" y="0px"
	 width="10.36px" height="14.28px" viewBox="57.82 55.86 10.36 14.28" enable-background="new 57.82 55.86 10.36 14.28"
	 xml:space="preserve">
<g>
	<path d="M62.791,66.611c-0.171,0-0.282,0.016-0.348,0.03v2.223c0.065,0.015,0.171,0.015,0.267,0.015
		c0.695,0.005,1.149-0.378,1.149-1.189C63.864,66.984,63.451,66.611,62.791,66.611z"/>
	<path d="M59.822,66.602c-0.156,0-0.262,0.015-0.317,0.03v1.003c0.065,0.015,0.146,0.02,0.257,0.02c0.408,0,0.66-0.206,0.66-0.554
		C60.422,66.788,60.205,66.602,59.822,66.602z"/>
	<path d="M68.178,59.282c-0.001-0.066-0.022-0.13-0.067-0.182l-2.753-3.145c-0.001,0-0.002-0.001-0.002-0.002
		c-0.017-0.018-0.035-0.033-0.056-0.046c-0.006-0.004-0.013-0.008-0.019-0.011c-0.018-0.009-0.036-0.017-0.056-0.023
		c-0.005-0.001-0.01-0.004-0.015-0.005c-0.021-0.005-0.043-0.008-0.064-0.008H58.38c-0.309,0-0.56,0.251-0.56,0.56v13.16
		c0,0.309,0.251,0.56,0.56,0.56h9.24c0.309,0,0.56-0.251,0.56-0.56V59.313C68.18,59.303,68.179,59.292,68.178,59.282z M60.87,67.887
		c-0.262,0.246-0.65,0.357-1.104,0.357c-0.101,0-0.191-0.005-0.262-0.015v1.214h-0.761v-3.352c0.236-0.04,0.569-0.07,1.038-0.07
		c0.474,0,0.812,0.091,1.038,0.272c0.217,0.171,0.362,0.453,0.362,0.786S61.072,67.695,60.87,67.887z M64.111,69.04
		c-0.357,0.298-0.902,0.438-1.567,0.438c-0.398,0-0.68-0.025-0.872-0.05v-3.337c0.282-0.045,0.65-0.07,1.038-0.07
		c0.645,0,1.063,0.116,1.391,0.363c0.353,0.262,0.574,0.68,0.574,1.279C64.676,68.314,64.438,68.764,64.111,69.04z M67.256,66.677
		h-1.305v0.776h1.219v0.625h-1.219v1.365H65.18v-3.396h2.076V66.677z M58.38,65.368V56.42h6.487v2.865
		c0,0.154,0.125,0.28,0.279,0.28h2.474v5.803H58.38z"/>
	<path d="M65.873,61.878c-0.017-0.001-0.411-0.038-1.017-0.038c-0.19,0-0.382,0.003-0.57,0.011c-1.196-0.897-2.175-1.796-2.7-2.299
		c0.009-0.055,0.016-0.099,0.019-0.133c0.069-0.73-0.008-1.223-0.228-1.465c-0.145-0.158-0.356-0.211-0.577-0.15
		c-0.137,0.036-0.391,0.169-0.472,0.439c-0.09,0.299,0.054,0.662,0.433,1.083c0.006,0.006,0.134,0.141,0.368,0.369
		c-0.152,0.724-0.549,2.285-0.742,3.035c-0.453,0.242-0.83,0.533-1.122,0.868l-0.019,0.021l-0.012,0.026
		c-0.03,0.063-0.174,0.391-0.066,0.654c0.049,0.12,0.142,0.207,0.267,0.254l0.034,0.009c0,0,0.03,0.006,0.083,0.006
		c0.233,0,0.811-0.122,1.12-1.262l0.075-0.289c1.08-0.525,2.429-0.694,3.407-0.741c0.503,0.373,1.004,0.716,1.489,1.02l0.016,0.009
		c0.023,0.012,0.236,0.117,0.485,0.118l0,0c0.355,0,0.616-0.219,0.713-0.599l0.005-0.026c0.027-0.218-0.027-0.414-0.158-0.567
		C66.43,61.908,65.919,61.88,65.873,61.878z M59.563,64.149c-0.002-0.003-0.003-0.005-0.004-0.008
		c-0.023-0.056,0.005-0.191,0.046-0.291c0.176-0.196,0.387-0.377,0.631-0.54C59.998,64.079,59.652,64.146,59.563,64.149z
		 M61.071,59.041L61.071,59.041c-0.365-0.406-0.359-0.607-0.34-0.675c0.032-0.113,0.177-0.156,0.179-0.156
		c0.073-0.02,0.118-0.016,0.157,0.027c0.089,0.098,0.167,0.395,0.136,0.939C61.117,59.089,61.071,59.041,61.071,59.041z
		 M60.882,62.499l0.006-0.024l-0.001,0c0.183-0.715,0.446-1.763,0.598-2.436l0.005,0.005l0-0.003
		c0.49,0.462,1.241,1.137,2.141,1.838l-0.01,0l0.015,0.011C62.79,61.963,61.777,62.13,60.882,62.499z M66.447,62.733
		c-0.064,0.237-0.188,0.27-0.302,0.27l0,0c-0.132,0-0.26-0.055-0.288-0.068c-0.331-0.207-0.669-0.433-1.01-0.674
		c0.003,0,0.006,0,0.009,0c0.584,0,0.974,0.035,0.989,0.037c0.098,0.003,0.406,0.049,0.539,0.206
		C66.438,62.564,66.457,62.638,66.447,62.733z"/>
</g>
</svg>
