<?xml version="1.0" encoding="utf-8"?>
<!-- Generator: Adobe Illustrator 16.0.0, SVG Export Plug-In . SVG Version: 6.00 Build 0)  -->
<!DOCTYPE svg PUBLIC "-//W3C//DTD SVG 1.1//EN" "http://www.w3.org/Graphics/SVG/1.1/DTD/svg11.dtd">
<svg version="1.1" id="Layer_1" xmlns="http://www.w3.org/2000/svg" xmlns:xlink="http://www.w3.org/1999/xlink" x="0px" y="0px"
	 width="8.88px" height="12.24px" viewBox="58.56 56.88 8.88 12.24" enable-background="new 58.56 56.88 8.88 12.24"
	 xml:space="preserve">
<g>
	<path d="M62.821,66.096c-0.147,0-0.242,0.013-0.298,0.025v1.905c0.056,0.013,0.147,0.013,0.229,0.013
		c0.596,0.005,0.984-0.323,0.984-1.02C63.741,66.415,63.387,66.096,62.821,66.096z"/>
	<path d="M60.276,66.087c-0.134,0-0.225,0.013-0.272,0.025v0.86c0.056,0.013,0.125,0.018,0.22,0.018c0.35,0,0.566-0.178,0.566-0.476
		C60.79,66.247,60.604,66.087,60.276,66.087z"/>
	<path d="M67.438,59.813c-0.001-0.056-0.019-0.111-0.057-0.155l-2.36-2.696c0,0-0.001-0.001-0.002-0.001
		c-0.014-0.016-0.03-0.029-0.048-0.04c-0.005-0.003-0.01-0.006-0.016-0.009c-0.015-0.008-0.03-0.015-0.047-0.02
		c-0.005-0.001-0.009-0.003-0.014-0.004c-0.018-0.004-0.036-0.007-0.055-0.007h-5.8c-0.265,0-0.48,0.215-0.48,0.48v11.28
		c0,0.265,0.215,0.48,0.48,0.48h7.92c0.265,0,0.48-0.216,0.48-0.48v-8.8C67.44,59.831,67.438,59.822,67.438,59.813z M61.175,67.188
		c-0.225,0.212-0.557,0.307-0.946,0.307c-0.086,0-0.164-0.005-0.224-0.013v1.041h-0.652V65.65c0.203-0.034,0.488-0.061,0.89-0.061
		c0.406,0,0.695,0.078,0.89,0.233c0.186,0.147,0.311,0.389,0.311,0.674S61.348,67.024,61.175,67.188z M63.952,68.178
		c-0.307,0.255-0.773,0.376-1.343,0.376c-0.341,0-0.583-0.022-0.748-0.044V65.65c0.242-0.038,0.558-0.061,0.89-0.061
		c0.553,0,0.911,0.1,1.192,0.312c0.302,0.225,0.492,0.583,0.492,1.097C64.437,67.556,64.233,67.939,63.952,68.178z M66.648,66.151
		h-1.119v0.665h1.045v0.536h-1.045v1.171h-0.66v-2.911h1.779V66.151z M59.04,65.03v-7.67h5.56v2.456c0,0.132,0.107,0.24,0.24,0.24
		h2.12v4.975H59.04z"/>
	<path d="M65.462,62.039c-0.014-0.001-0.352-0.032-0.871-0.032c-0.162,0-0.326,0.003-0.488,0.009
		c-1.025-0.77-1.865-1.539-2.314-1.971c0.008-0.047,0.014-0.085,0.017-0.114c0.06-0.626-0.006-1.048-0.195-1.256
		c-0.124-0.135-0.305-0.181-0.494-0.129c-0.117,0.031-0.334,0.145-0.404,0.377c-0.077,0.256,0.047,0.567,0.371,0.928
		c0.005,0.005,0.116,0.121,0.316,0.316c-0.13,0.62-0.471,1.959-0.636,2.602c-0.388,0.208-0.711,0.457-0.961,0.744l-0.017,0.019
		l-0.01,0.022c-0.026,0.055-0.149,0.336-0.057,0.562c0.042,0.103,0.121,0.178,0.229,0.217l0.029,0.008c0,0,0.026,0.006,0.071,0.006
		c0.201,0,0.695-0.105,0.96-1.082l0.064-0.248c0.925-0.45,2.082-0.595,2.92-0.635c0.432,0.319,0.86,0.613,1.276,0.874l0.014,0.008
		c0.02,0.01,0.202,0.1,0.416,0.101l0,0c0.305,0,0.527-0.187,0.61-0.514l0.005-0.022c0.022-0.187-0.024-0.354-0.136-0.486
		C65.94,62.064,65.502,62.04,65.462,62.039z M60.054,63.985c-0.002-0.002-0.003-0.004-0.004-0.007
		c-0.02-0.048,0.004-0.164,0.039-0.249c0.151-0.169,0.332-0.324,0.542-0.463C60.427,63.926,60.13,63.982,60.054,63.985z
		 M61.346,59.606L61.346,59.606c-0.313-0.348-0.308-0.521-0.291-0.579c0.028-0.097,0.152-0.134,0.153-0.134
		c0.063-0.017,0.101-0.014,0.135,0.023c0.077,0.084,0.143,0.339,0.116,0.805C61.386,59.648,61.346,59.606,61.346,59.606z
		 M61.185,62.57l0.005-0.021h0c0.157-0.613,0.382-1.511,0.512-2.087l0.004,0.004l0.001-0.003c0.42,0.396,1.063,0.974,1.835,1.576
		l-0.009,0l0.013,0.01C62.819,62.111,61.952,62.254,61.185,62.57z M65.955,62.771c-0.055,0.203-0.161,0.231-0.259,0.231l0,0
		c-0.113,0-0.223-0.047-0.247-0.058c-0.283-0.178-0.573-0.371-0.865-0.578c0.002,0,0.004,0,0.007,0c0.501,0,0.835,0.031,0.848,0.031
		c0.084,0.003,0.349,0.042,0.463,0.177C65.946,62.627,65.964,62.689,65.955,62.771z"/>
</g>
</svg>
