<?xml version="1.0" encoding="utf-8"?>
<!-- Generator: Adobe Illustrator 16.0.0, SVG Export Plug-In . SVG Version: 6.00 Build 0)  -->
<!DOCTYPE svg PUBLIC "-//W3C//DTD SVG 1.1//EN" "http://www.w3.org/Graphics/SVG/1.1/DTD/svg11.dtd">
<svg version="1.1" id="Layer_1" xmlns="http://www.w3.org/2000/svg" xmlns:xlink="http://www.w3.org/1999/xlink" x="0px" y="0px"
	 width="10.36px" height="14.28px" viewBox="57.82 55.86 10.36 14.28" enable-background="new 57.82 55.86 10.36 14.28"
	 xml:space="preserve">
<g>
	<path fill="#FFFFFF" d="M62.791,66.611c-0.171,0-0.282,0.016-0.349,0.03v2.224c0.065,0.014,0.171,0.014,0.268,0.014
		c0.694,0.006,1.148-0.377,1.148-1.188C63.864,66.984,63.451,66.611,62.791,66.611z"/>
	<path fill="#FFFFFF" d="M59.822,66.602c-0.155,0-0.262,0.015-0.316,0.03v1.002c0.064,0.016,0.146,0.021,0.257,0.021
		c0.408,0,0.66-0.206,0.66-0.554C60.422,66.789,60.205,66.602,59.822,66.602z"/>
	<path fill="#FFFFFF" d="M68.178,59.283c-0.001-0.066-0.022-0.131-0.067-0.183l-2.753-3.146c-0.001,0-0.002,0-0.002-0.002
		c-0.017-0.018-0.035-0.033-0.056-0.045c-0.006-0.005-0.013-0.009-0.019-0.012c-0.019-0.009-0.036-0.018-0.057-0.023
		c-0.005,0-0.01-0.004-0.015-0.004c-0.021-0.006-0.043-0.009-0.064-0.009H58.38c-0.31,0-0.561,0.251-0.561,0.56v13.16
		c0,0.31,0.251,0.561,0.561,0.561h9.24c0.309,0,0.56-0.251,0.56-0.561V59.313C68.18,59.302,68.179,59.292,68.178,59.283z
		 M60.87,67.887c-0.263,0.245-0.65,0.356-1.104,0.356c-0.101,0-0.19-0.004-0.262-0.015v1.214h-0.761v-3.352
		c0.235-0.041,0.568-0.07,1.037-0.07c0.475,0,0.813,0.091,1.038,0.271c0.218,0.172,0.362,0.453,0.362,0.787
		C61.181,67.412,61.072,67.695,60.87,67.887z M64.111,69.041c-0.356,0.297-0.901,0.438-1.566,0.438
		c-0.398,0-0.681-0.025-0.872-0.051v-3.336c0.282-0.045,0.649-0.07,1.038-0.07c0.645,0,1.063,0.116,1.391,0.363
		c0.354,0.262,0.574,0.68,0.574,1.279C64.676,68.314,64.438,68.764,64.111,69.041z M67.256,66.677h-1.305v0.775h1.219v0.625h-1.219
		v1.365H65.18v-3.396h2.076V66.677z M58.38,65.369v-8.949h6.487v2.865c0,0.154,0.125,0.28,0.278,0.28h2.475v5.804H58.38z"/>
	<path fill="#FFFFFF" d="M65.873,61.878c-0.018-0.002-0.411-0.039-1.018-0.039c-0.189,0-0.382,0.004-0.569,0.012
		c-1.196-0.896-2.176-1.796-2.7-2.299c0.009-0.055,0.016-0.1,0.019-0.133c0.069-0.73-0.008-1.224-0.228-1.465
		c-0.146-0.158-0.356-0.211-0.577-0.15c-0.137,0.035-0.391,0.169-0.472,0.439c-0.091,0.299,0.054,0.662,0.433,1.082
		c0.006,0.006,0.134,0.141,0.368,0.369c-0.152,0.725-0.549,2.285-0.742,3.035c-0.453,0.242-0.83,0.533-1.122,0.868l-0.019,0.021
		l-0.013,0.026c-0.029,0.063-0.174,0.392-0.065,0.653c0.049,0.121,0.142,0.207,0.267,0.254l0.034,0.01c0,0,0.03,0.006,0.083,0.006
		c0.233,0,0.811-0.122,1.12-1.262l0.075-0.289c1.08-0.525,2.429-0.693,3.406-0.741c0.504,0.373,1.005,0.716,1.489,1.021l0.017,0.009
		c0.022,0.012,0.235,0.116,0.484,0.118l0,0c0.355,0,0.616-0.219,0.713-0.6l0.005-0.025c0.027-0.219-0.026-0.414-0.157-0.567
		C66.43,61.908,65.919,61.88,65.873,61.878z M59.563,64.149c-0.002-0.003-0.003-0.005-0.004-0.008
		c-0.022-0.056,0.005-0.19,0.046-0.291c0.176-0.196,0.388-0.377,0.631-0.54C59.998,64.08,59.652,64.146,59.563,64.149z
		 M61.071,59.041L61.071,59.041c-0.364-0.406-0.358-0.606-0.34-0.674c0.032-0.113,0.178-0.156,0.18-0.156
		c0.072-0.021,0.117-0.017,0.156,0.026c0.089,0.099,0.167,0.396,0.137,0.938C61.117,59.089,61.071,59.041,61.071,59.041z
		 M60.882,62.5l0.006-0.024h-0.001c0.183-0.716,0.446-1.763,0.598-2.437l0.006,0.006v-0.004c0.489,0.463,1.24,1.137,2.141,1.838
		h-0.01l0.015,0.012C62.79,61.962,61.777,62.13,60.882,62.5z M66.447,62.733c-0.063,0.237-0.188,0.271-0.302,0.271l0,0
		c-0.132,0-0.26-0.055-0.288-0.068c-0.331-0.207-0.669-0.434-1.01-0.674c0.003,0,0.006,0,0.009,0c0.584,0,0.975,0.035,0.989,0.037
		c0.098,0.002,0.406,0.049,0.539,0.205C66.438,62.564,66.457,62.638,66.447,62.733z"/>
</g>
</svg>
