<?xml version="1.0" encoding="utf-8"?>
<!-- Generator: Adobe Illustrator 16.0.0, SVG Export Plug-In . SVG Version: 6.00 Build 0)  -->
<!DOCTYPE svg PUBLIC "-//W3C//DTD SVG 1.1//EN" "http://www.w3.org/Graphics/SVG/1.1/DTD/svg11.dtd">
<svg version="1.1" id="Layer_1" xmlns="http://www.w3.org/2000/svg" xmlns:xlink="http://www.w3.org/1999/xlink" x="0px" y="0px"
	 width="10.36px" height="14.28px" viewBox="57.82 55.86 10.36 14.28" enable-background="new 57.82 55.86 10.36 14.28"
	 xml:space="preserve">
<g>
	<path fill="#FFFFFF" d="M59.799,66.596c-0.147,0-0.247,0.015-0.299,0.029v0.945c0.062,0.015,0.138,0.02,0.243,0.02
		c0.385,0,0.623-0.195,0.623-0.523C60.366,66.771,60.161,66.596,59.799,66.596z"/>
	<polygon fill="#FFFFFF" points="65.029,59.539 65.03,59.539 65.03,59.539 	"/>
	<path fill="#FFFFFF" d="M68.178,59.282c-0.001-0.066-0.022-0.13-0.067-0.182l-2.753-3.145c-0.001,0-0.002-0.001-0.002-0.002
		c-0.017-0.018-0.035-0.033-0.056-0.046c-0.006-0.004-0.013-0.008-0.019-0.011c-0.018-0.009-0.036-0.017-0.056-0.023
		c-0.005-0.001-0.01-0.004-0.015-0.005c-0.021-0.005-0.043-0.008-0.064-0.008H58.38c-0.309,0-0.56,0.251-0.56,0.56v13.16
		c0,0.309,0.251,0.56,0.56,0.56h9.24c0.309,0,0.56-0.251,0.56-0.56V59.313C68.18,59.303,68.179,59.292,68.178,59.282z
		 M60.789,67.809c-0.247,0.232-0.613,0.338-1.042,0.338c-0.095,0-0.181-0.006-0.247-0.015v1.146h-0.718v-3.162
		c0.223-0.037,0.537-0.066,0.979-0.066c0.446,0,0.766,0.086,0.979,0.257c0.205,0.162,0.342,0.428,0.342,0.742
		C61.083,67.361,60.979,67.628,60.789,67.809z M64.198,69.277h-0.761l-0.685-1.236c-0.191-0.342-0.4-0.756-0.557-1.131l-0.014,0.004
		c0.019,0.424,0.028,0.875,0.028,1.398v0.965h-0.666v-3.204h0.846l0.666,1.174c0.19,0.338,0.38,0.737,0.523,1.099h0.014
		c-0.048-0.423-0.062-0.855-0.062-1.336v-0.937h0.666V69.277L64.198,69.277z M67.503,69.13c-0.224,0.076-0.646,0.181-1.07,0.181
		c-0.584,0-1.008-0.147-1.303-0.433c-0.294-0.275-0.456-0.694-0.451-1.165c0.004-1.064,0.779-1.673,1.83-1.673
		c0.413,0,0.732,0.08,0.89,0.156l-0.152,0.58c-0.176-0.075-0.395-0.138-0.747-0.138c-0.604,0-1.06,0.343-1.06,1.036
		c0,0.661,0.413,1.051,1.008,1.051c0.166,0,0.3-0.019,0.356-0.047v-0.671H66.31v-0.565h1.193V69.13L67.503,69.13z M58.38,65.368
		V56.42h6.487v2.014h0.175v1.104h1.093v0.027h1.485v5.803H58.38z"/>
	<polygon fill="#FFFFFF" points="60.639,62.852 61.724,62.852 61.724,61.748 60.631,61.748 60.631,60.643 61.724,60.643 
		61.724,59.539 60.631,59.539 60.631,58.434 59.526,58.434 59.526,59.539 60.619,59.539 60.619,60.643 59.526,60.643 59.526,61.748 
		60.619,61.748 60.619,62.852 59.535,62.852 59.535,63.956 60.628,63.956 60.628,65.061 61.731,65.061 61.731,63.956 60.639,63.956 
			"/>
	<polygon fill="#FFFFFF" points="62.845,62.852 63.93,62.852 63.93,61.748 62.836,61.748 62.836,60.643 63.93,60.643 63.93,59.539 
		62.836,59.539 62.836,58.434 61.731,58.434 61.731,59.539 62.825,59.539 62.825,60.643 61.731,60.643 61.731,61.748 62.825,61.748 
		62.825,62.852 61.74,62.852 61.74,63.956 62.833,63.956 62.833,65.061 63.938,65.061 63.938,63.956 62.845,63.956 	"/>
	<path fill="#FFFFFF" d="M63.938,59.539h1.092c-0.096-0.044-0.162-0.141-0.162-0.253v-0.851h-0.93V59.539z"/>
	<path fill="#FFFFFF" d="M65.03,59.539v1.104h-1.093v1.104h1.093v1.104h-1.085v1.104h1.093v1.104h1.104v-1.104H65.05v-1.104h1.085
		v-1.104h-1.093v-1.104h1.093v-1.078h-0.988C65.104,59.565,65.065,59.556,65.03,59.539z"/>
</g>
</svg>
