<?xml version="1.0" encoding="utf-8"?>
<!-- Generator: Adobe Illustrator 16.0.0, SVG Export Plug-In . SVG Version: 6.00 Build 0)  -->
<!DOCTYPE svg PUBLIC "-//W3C//DTD SVG 1.1//EN" "http://www.w3.org/Graphics/SVG/1.1/DTD/svg11.dtd">
<svg version="1.1" id="Layer_1" xmlns="http://www.w3.org/2000/svg" xmlns:xlink="http://www.w3.org/1999/xlink" x="0px" y="0px"
	 width="10.36px" height="14.28px" viewBox="57.82 55.86 10.36 14.28" enable-background="new 57.82 55.86 10.36 14.28"
	 xml:space="preserve">
<g>
	<path d="M59.691,66.564c-0.186,0-0.292,0.016-0.348,0.025v0.938h0.302c0.383,0,0.61-0.191,0.61-0.488
		C60.255,66.727,60.044,66.57,59.691,66.564z"/>
	<path d="M62.886,66.595h-0.01c-0.05,0.202-0.101,0.459-0.156,0.655l-0.202,0.721h0.751l-0.212-0.721
		C62.997,67.049,62.937,66.797,62.886,66.595z"/>
	<path d="M68.178,59.282c-0.001-0.066-0.022-0.13-0.067-0.182l-2.753-3.145c-0.001,0-0.002-0.001-0.002-0.002
		c-0.017-0.018-0.036-0.033-0.057-0.046c-0.006-0.004-0.012-0.008-0.018-0.011c-0.018-0.009-0.036-0.017-0.056-0.023
		c-0.005-0.001-0.01-0.004-0.015-0.005c-0.021-0.005-0.043-0.008-0.064-0.008H58.38c-0.309,0-0.56,0.251-0.56,0.56v13.16
		c0,0.309,0.251,0.56,0.56,0.56h9.24c0.309,0,0.56-0.251,0.56-0.56V59.313C68.18,59.303,68.179,59.292,68.178,59.282z
		 M60.361,69.417c-0.056-0.096-0.136-0.373-0.237-0.791c-0.091-0.423-0.237-0.539-0.549-0.544h-0.232v1.335h-0.761v-3.351
		c0.247-0.041,0.615-0.071,1.023-0.071c0.504,0,0.856,0.076,1.099,0.268c0.201,0.161,0.313,0.397,0.313,0.71
		c0,0.434-0.308,0.73-0.6,0.837v0.015c0.236,0.096,0.368,0.323,0.453,0.636c0.106,0.383,0.212,0.826,0.277,0.957H60.361
		L60.361,69.417z M63.642,69.417l-0.262-0.872h-0.973l-0.242,0.872h-0.796l1.038-3.396h1.008l1.054,3.396H63.642z M66.701,69.417
		c-0.055-0.096-0.136-0.373-0.236-0.791c-0.091-0.423-0.237-0.539-0.55-0.544h-0.231v1.335h-0.761v-3.351
		c0.247-0.041,0.614-0.071,1.022-0.071c0.504,0,0.856,0.076,1.099,0.268c0.202,0.161,0.313,0.397,0.313,0.71
		c0,0.434-0.308,0.73-0.6,0.837v0.015c0.237,0.096,0.368,0.323,0.453,0.636c0.106,0.383,0.212,0.826,0.277,0.957H66.701
		L66.701,69.417z M58.38,65.368V56.42h6.486v2.865c0,0.154,0.126,0.28,0.28,0.28h2.474v5.803H58.38z"/>
	<path d="M66.031,66.564c-0.187,0-0.292,0.016-0.348,0.025v0.938h0.303c0.383,0,0.609-0.191,0.609-0.488
		C66.596,66.727,66.384,66.57,66.031,66.564z"/>
	<rect x="59.712" y="59.679" width="4.242" height="0.562"/>
	<polygon points="63.954,60.96 64.671,60.96 64.671,61.145 64.671,61.356 64.671,61.596 64.671,61.807 64.671,62.052 64.671,62.263 
		64.671,62.548 63.954,62.548 63.954,63.235 59.712,63.235 59.712,63.796 63.954,63.796 63.954,63.267 66.074,63.267 66.074,62.548 
		64.89,62.548 64.89,62.263 65.357,62.263 65.357,62.052 64.89,62.052 64.89,61.807 65.357,61.807 65.357,61.596 64.89,61.596 
		64.89,61.356 65.357,61.356 65.357,61.145 64.89,61.145 64.89,60.96 66.074,60.96 66.074,60.241 63.954,60.241 	"/>
	<rect x="60.258" y="60.53" width="3.15" height="2.449"/>
</g>
</svg>
