<?xml version="1.0" encoding="utf-8"?>
<!-- Generator: Adobe Illustrator 16.0.0, SVG Export Plug-In . SVG Version: 6.00 Build 0)  -->
<!DOCTYPE svg PUBLIC "-//W3C//DTD SVG 1.1//EN" "http://www.w3.org/Graphics/SVG/1.1/DTD/svg11.dtd">
<svg version="1.1" id="Layer_1" xmlns="http://www.w3.org/2000/svg" xmlns:xlink="http://www.w3.org/1999/xlink" x="0px" y="0px"
	 width="10.36px" height="14.28px" viewBox="57.82 55.86 10.36 14.28" enable-background="new 57.82 55.86 10.36 14.28"
	 xml:space="preserve">
<path fill="#FFFFFF" d="M68.178,59.282c-0.001-0.066-0.022-0.13-0.067-0.182l-2.753-3.145c-0.001,0-0.002-0.001-0.002-0.002
	c-0.017-0.018-0.035-0.033-0.056-0.046c-0.006-0.004-0.013-0.008-0.019-0.011c-0.018-0.009-0.036-0.017-0.056-0.023
	c-0.005-0.001-0.01-0.004-0.015-0.005c-0.021-0.005-0.042-0.008-0.064-0.008H58.38c-0.309,0-0.56,0.251-0.56,0.56v13.16
	c0,0.309,0.251,0.56,0.56,0.56h9.24c0.309,0,0.56-0.251,0.56-0.56V59.313C68.18,59.303,68.179,59.292,68.178,59.282z M61.759,66.762
	h-0.842v2.497h-0.7v-2.497H59.39v-0.586h2.369V66.762z M64.096,69.259h-1.966v-3.083h1.903v0.572h-1.203v0.641h1.135v0.566h-1.135
	v0.732h1.267V69.259z M66.196,69.259l-0.279-0.558c-0.114-0.215-0.188-0.375-0.274-0.554h-0.009
	c-0.064,0.179-0.143,0.339-0.238,0.554l-0.256,0.558h-0.796l0.892-1.56l-0.859-1.523h0.8l0.27,0.563
	c0.092,0.188,0.161,0.339,0.233,0.513h0.01c0.073-0.196,0.132-0.334,0.21-0.513l0.261-0.563h0.796l-0.869,1.505l0.915,1.578H66.196z
	 M58.38,65.368V56.42h6.487v2.865c0,0.154,0.125,0.28,0.279,0.28h2.474v5.803H58.38z"/>
<g>
	<path fill="#FFFFFF" d="M61.526,60.564v-0.651h-2.29v0.651h0.076c0.006-0.098,0.022-0.177,0.05-0.239
		c0.027-0.062,0.064-0.11,0.111-0.146s0.102-0.06,0.166-0.073c0.064-0.014,0.138-0.02,0.221-0.02h0.332v2.116
		c0,0.091-0.007,0.164-0.02,0.216s-0.032,0.093-0.056,0.12c-0.024,0.028-0.055,0.045-0.091,0.054
		c-0.037,0.008-0.079,0.012-0.128,0.012H59.8v0.076h1.172v-0.076h-0.094c-0.049,0-0.092-0.003-0.128-0.011
		c-0.037-0.007-0.067-0.024-0.092-0.05c-0.024-0.026-0.043-0.066-0.056-0.12c-0.013-0.054-0.02-0.127-0.02-0.221v-2.117h0.39
		c0.156,0,0.274,0.036,0.355,0.108c0.08,0.072,0.131,0.195,0.153,0.37H61.526z"/>
	<path fill="#FFFFFF" d="M63.363,63.063c-0.035,0.032-0.067,0.06-0.098,0.081c-0.03,0.021-0.065,0.038-0.105,0.05
		c-0.04,0.012-0.087,0.021-0.142,0.024s-0.122,0.006-0.201,0.006h-0.469c-0.059,0-0.104-0.003-0.134-0.009
		c-0.031-0.006-0.053-0.02-0.067-0.041c-0.014-0.021-0.022-0.053-0.024-0.093s-0.003-0.095-0.003-0.165v-0.914h0.606
		c0.089,0,0.161,0.007,0.213,0.02s0.094,0.036,0.123,0.067c0.029,0.032,0.051,0.074,0.064,0.126s0.025,0.119,0.035,0.198h0.076
		v-0.963h-0.076c-0.004,0.069-0.012,0.129-0.024,0.18s-0.034,0.093-0.066,0.125c-0.031,0.033-0.074,0.057-0.129,0.073
		c-0.055,0.016-0.127,0.024-0.216,0.024H62.12V60.76h0.758c0.093,0,0.17,0.004,0.23,0.014c0.06,0.009,0.109,0.03,0.147,0.062
		c0.039,0.033,0.07,0.079,0.093,0.139c0.023,0.06,0.045,0.14,0.065,0.239h0.049v-0.606h-2.132v0.076h0.098
		c0.116,0,0.198,0.027,0.247,0.082c0.034,0.041,0.051,0.149,0.051,0.326v1.797c0,0.134-0.008,0.224-0.024,0.268
		c-0.008,0.024-0.022,0.045-0.043,0.064s-0.043,0.033-0.068,0.044c-0.025,0.012-0.052,0.02-0.081,0.026
		c-0.029,0.006-0.056,0.009-0.083,0.009h-0.098v0.076h2.132l0.241-0.694h-0.083C63.53,62.856,63.444,62.983,63.363,63.063z"/>
	<path fill="#FFFFFF" d="M66.236,62.44c-0.046-0.013-0.093-0.039-0.141-0.078c-0.048-0.039-0.1-0.095-0.155-0.169
		s-0.126-0.174-0.211-0.3l-0.595-0.886l0.549-0.703c0.115-0.146,0.201-0.244,0.259-0.292c0.053-0.047,0.108-0.084,0.166-0.113
		s0.134-0.046,0.227-0.052v-0.076h-0.98v0.076c0.109,0.004,0.187,0.016,0.23,0.036c0.044,0.021,0.065,0.061,0.065,0.119
		c0,0.017-0.001,0.031-0.003,0.043c-0.002,0.012-0.008,0.025-0.016,0.041c-0.008,0.015-0.021,0.035-0.036,0.058
		c-0.017,0.023-0.04,0.055-0.07,0.093l-0.49,0.625l-0.427-0.636c-0.065-0.096-0.097-0.169-0.097-0.219
		c0-0.039,0.02-0.074,0.061-0.105c0.04-0.032,0.114-0.049,0.223-0.054v-0.076h-1.279v0.076c0.068,0.004,0.132,0.014,0.188,0.029
		c0.057,0.015,0.113,0.042,0.169,0.079s0.113,0.09,0.174,0.158c0.06,0.068,0.127,0.157,0.202,0.267l0.545,0.798l-0.651,0.825
		c-0.057,0.071-0.111,0.134-0.164,0.19c-0.053,0.056-0.106,0.103-0.16,0.14c-0.055,0.038-0.11,0.067-0.169,0.089
		c-0.06,0.022-0.122,0.036-0.189,0.04v0.076h0.981v-0.076c-0.104-0.004-0.174-0.021-0.211-0.049
		c-0.036-0.028-0.055-0.064-0.055-0.106c0-0.015,0.001-0.028,0.002-0.04c0.001-0.012,0.006-0.026,0.014-0.042
		s0.021-0.037,0.038-0.061c0.017-0.024,0.042-0.057,0.074-0.098l0.582-0.743l0.469,0.709c0.028,0.044,0.052,0.08,0.07,0.106
		s0.032,0.048,0.041,0.065c0.009,0.018,0.015,0.03,0.017,0.04s0.003,0.019,0.003,0.029c0,0.059-0.018,0.105-0.054,0.137
		c-0.035,0.032-0.108,0.05-0.221,0.052v0.076h1.188v-0.076C66.336,62.46,66.281,62.453,66.236,62.44z"/>
</g>
</svg>
