<?xml version="1.0" encoding="utf-8"?>
<!-- Generator: Adobe Illustrator 16.0.0, SVG Export Plug-In . SVG Version: 6.00 Build 0)  -->
<!DOCTYPE svg PUBLIC "-//W3C//DTD SVG 1.1//EN" "http://www.w3.org/Graphics/SVG/1.1/DTD/svg11.dtd">
<svg version="1.1" id="Layer_1" xmlns="http://www.w3.org/2000/svg" xmlns:xlink="http://www.w3.org/1999/xlink" x="0px" y="0px"
	 width="10.36px" height="14.28px" viewBox="57.82 55.86 10.36 14.28" enable-background="new 57.82 55.86 10.36 14.28"
	 xml:space="preserve">
<g>
	<path fill="#FFFFFF" d="M68.178,59.282c-0.001-0.066-0.022-0.13-0.067-0.182l-2.753-3.145c-0.001,0-0.002-0.001-0.002-0.002
		c-0.017-0.018-0.035-0.033-0.056-0.046c-0.006-0.004-0.013-0.008-0.019-0.011c-0.018-0.009-0.036-0.017-0.056-0.023
		c-0.005-0.001-0.01-0.004-0.015-0.005c-0.021-0.005-0.042-0.008-0.064-0.008H58.38c-0.309,0-0.56,0.251-0.56,0.56v13.16
		c0,0.309,0.251,0.56,0.56,0.56h9.24c0.309,0,0.56-0.251,0.56-0.56V59.313C68.18,59.303,68.179,59.292,68.178,59.282z
		 M62.175,69.432h-2.64v-0.413l1.618-2.328V66.67h-1.467v-0.635h2.464v0.444l-1.583,2.298v0.02h1.607V69.432z M63.431,69.432H62.66
		v-3.396h0.771V69.432z M66.223,67.875c-0.262,0.247-0.65,0.357-1.104,0.357c-0.101,0-0.191-0.005-0.262-0.015v1.215h-0.762v-3.352
		c0.237-0.04,0.569-0.07,1.038-0.07c0.475,0,0.812,0.09,1.038,0.271c0.217,0.172,0.363,0.454,0.363,0.786
		C66.535,67.401,66.424,67.684,66.223,67.875z M58.38,65.368V56.42h3.349v-0.088h0.85v0.088h2.289v2.865
		c0,0.154,0.125,0.28,0.279,0.28h2.474v5.803H58.38z"/>
	<path fill="#FFFFFF" d="M65.175,66.59c-0.156,0-0.263,0.016-0.317,0.03v1.003c0.065,0.016,0.146,0.021,0.257,0.021
		c0.408,0,0.66-0.207,0.66-0.555C65.774,66.776,65.558,66.59,65.175,66.59z"/>
	<rect x="62.578" y="56.895" fill="#FFFFFF" width="0.849" height="0.35"/>
	<rect x="61.729" y="56.42" fill="#FFFFFF" width="0.85" height="0.263"/>
	<rect x="61.729" y="57.419" fill="#FFFFFF" width="0.85" height="0.35"/>
	<rect x="62.578" y="57.993" fill="#FFFFFF" width="0.849" height="0.35"/>
	<rect x="62.578" y="59.1" fill="#FFFFFF" width="0.849" height="0.351"/>
	<rect x="61.729" y="58.538" fill="#FFFFFF" width="0.85" height="0.35"/>
	<path fill="#FFFFFF" d="M62.578,59.737c-0.602,0-0.888,0.487-0.888,1.088l-0.201,1.824c0,0.602,0.487,1.089,1.089,1.089
		c0.601,0,1.088-0.487,1.088-1.089l-0.201-1.824C63.466,60.224,63.179,59.737,62.578,59.737z M62.938,63.26h-0.721v-1.522h0.721
		V63.26z"/>
</g>
</svg>
